<?xml version="1.0" standalone="no"?>
<!DOCTYPE svg PUBLIC "-//W3C//DTD SVG 20010904//EN"
 "http://www.w3.org/TR/2001/REC-SVG-20010904/DTD/svg10.dtd">
<svg version="1.0" xmlns="http://www.w3.org/2000/svg"
 width="700.000000pt" height="700.000000pt" viewBox="0 0 700.000000 700.000000"
 preserveAspectRatio="xMidYMid meet">
<metadata>
Created by potrace 1.11, written by Peter Selinger 2001-2013
</metadata>
<g transform="translate(0.000000,700.000000) scale(0.100000,-0.100000)"
fill="#000000" stroke="none">
<path d="M3888 6985 c-1 -1 -21 -5 -43 -8 -98 -12 -224 -57 -339 -121 -199
-111 -383 -311 -499 -541 l-35 -70 -263 1 c-145 1 -290 -1 -321 -5 l-58 -7
-11 35 c-20 61 -91 204 -127 256 -117 169 -259 298 -407 372 -51 26 -134 58
-142 55 -2 0 -25 6 -53 13 -59 16 -176 14 -208 -4 -45 -24 -47 -73 -7 -150 9
-18 47 -79 85 -135 91 -136 157 -299 200 -497 24 -107 31 -98 -115 -141 -113
-34 -197 -52 -335 -74 -229 -36 -366 -93 -466 -191 -30 -30 -54 -58 -54 -63 0
-5 -6 -15 -13 -22 -7 -7 -20 -31 -29 -53 -62 -143 -43 -322 43 -431 l30 -38
-43 -35 c-200 -164 -382 -403 -459 -605 -11 -28 -24 -60 -29 -71 -13 -29 -58
-193 -65 -239 -3 -21 -7 -41 -9 -45 -6 -10 -18 -168 -19 -246 -5 -483 220
-980 574 -1265 138 -112 155 -157 149 -390 -8 -324 -7 -340 24 -399 70 -136
203 -202 392 -196 197 8 490 99 677 211 34 21 64 41 67 44 3 3 26 21 52 38 25
18 52 38 60 45 7 7 32 30 54 50 l42 37 21 -87 c12 -49 24 -99 26 -113 3 -14 7
-36 10 -50 9 -45 14 -84 21 -155 4 -38 8 -83 10 -100 6 -50 15 -384 18 -675 3
-218 7 -287 20 -335 65 -235 230 -352 498 -353 57 0 130 4 163 9 33 5 78 12
100 15 62 8 154 43 199 73 98 68 158 184 180 351 7 52 8 618 1 760 -3 72 -2
89 6 70 12 -29 14 -36 33 -145 15 -80 19 -112 33 -228 3 -34 6 -216 6 -405 -1
-381 3 -416 61 -507 48 -75 136 -139 238 -174 185 -63 451 -38 603 57 59 37
147 130 172 182 48 99 50 127 47 568 -2 228 -1 419 2 424 4 6 12 -3 19 -19 17
-40 71 -100 116 -128 101 -65 329 -88 494 -51 59 13 84 21 123 39 l42 19 41
-45 c79 -90 201 -126 415 -121 190 4 297 39 395 131 77 72 138 199 156 325 14
95 -3 1122 -22 1328 -10 112 -17 177 -21 190 -2 8 -6 35 -9 59 -3 24 -8 48
-11 52 -3 5 0 10 5 10 6 1 14 2 19 4 4 1 21 5 37 10 40 11 120 51 175 88 154
105 269 313 272 494 2 56 -10 139 -22 162 -5 9 -14 31 -20 49 -17 44 -66 95
-118 122 -59 31 -133 29 -258 -5 -104 -28 -176 -33 -305 -22 -192 17 -179 13
-239 76 -181 190 -482 350 -900 480 -85 27 -181 55 -213 62 l-58 12 68 36
c131 69 265 228 304 364 54 185 12 357 -118 485 -72 71 -137 109 -279 161 -44
16 -175 72 -290 124 -115 53 -261 116 -324 142 -63 26 -128 53 -145 60 -24 11
-259 94 -313 110 -15 5 17 80 95 222 79 141 169 259 265 345 127 114 169 158
184 194 25 60 -7 95 -116 124 -41 11 -203 23 -212 15z"/>
</g>
</svg>
